<svg viewBox="0 0 18 24">
    <path d="M9 14C11.3861 14.0026 13.6741 14.9514 15.3613 16.6387C17.0486 18.3259 17.9974 20.6139 18 23C18 23.2652 17.8946 23.5195 17.707 23.707C17.5195 23.8946 17.2652 24 17 24C16.7348 24 16.4805 23.8946 16.293 23.707C16.1054 23.5195 16 23.2652 16 23C16 21.1435 15.2629 19.3626 13.9502 18.0498C12.6374 16.7371 10.8565 16 9 16C7.14348 16 5.36256 16.7371 4.0498 18.0498C2.73706 19.3626 2 21.1435 2 23C1.99999 23.2652 1.89456 23.5195 1.70703 23.707C1.5195 23.8946 1.26521 24 1 24C0.734794 24 0.480503 23.8946 0.292969 23.707C0.105443 23.5195 1.16172e-05 23.2652 0 23C0.00264684 20.6139 0.951432 18.3259 2.63867 16.6387C4.32593 14.9514 6.61386 14.0026 9 14ZM6.7041 0.457031C7.80044 0.0029222 9.00703 -0.116274 10.1709 0.115234C11.3344 0.346746 12.4032 0.918058 13.2422 1.75684C14.0812 2.59588 14.6532 3.66533 14.8848 4.8291C15.1163 5.99298 14.9971 7.19955 14.543 8.2959C14.0888 9.39225 13.3197 10.33 12.333 10.9893C11.3464 11.6483 10.1865 12 9 12C7.4092 11.9984 5.88366 11.3661 4.75879 10.2412C3.63392 9.11635 3.0016 7.5908 3 6C3 4.81352 3.35168 3.65358 4.01074 2.66699C4.67003 1.6803 5.60774 0.911157 6.7041 0.457031ZM9 2C7.93913 2 6.92202 2.42173 6.17188 3.17188C5.42174 3.92202 5 4.93914 5 6C5.00001 6.79111 5.23431 7.56487 5.67383 8.22266C6.11335 8.88038 6.73888 9.39259 7.46973 9.69531C8.20053 9.99794 9.00448 10.0772 9.78027 9.92285C10.5562 9.76851 11.2687 9.38752 11.8281 8.82812C12.3875 8.26872 12.7685 7.55619 12.9229 6.78027C13.0772 6.00435 12.9981 5.19965 12.6953 4.46875C12.3926 3.7381 11.8802 3.11325 11.2227 2.67383C10.5649 2.2343 9.79113 2 9 2Z"/>
</svg>
