<svg viewBox="0 0 24 24">
    <path d="M9 3V21C9 22.65 10.35 24 12 24C13.65 24 15 22.65 15 21V3C15 1.35 13.65 0 12 0C10.35 0 9 1.35 9 3ZM13 3V21C13 21.55 12.55 22 12 22C11.45 22 11 21.55 11 21V3C11 2.45 11.45 2 12 2C12.55 2 13 2.45 13 3ZM6 21V9C6 7.35 4.65 6 3 6C1.35 6 0 7.35 0 9L0 21C0 22.65 1.35 24 3 24C4.65 24 6 22.65 6 21ZM2 21L2 9C2 8.45 2.45 8 3 8C3.55 8 4 8.45 4 9L4 21C4 21.55 3.55 22 3 22C2.45 22 2 21.55 2 21ZM18 15V21C18 22.65 19.35 24 21 24C22.65 24 24 22.65 24 21V15C24 13.35 22.65 12 21 12C19.35 12 18 13.35 18 15ZM22 15V21C22 21.55 21.55 22 21 22C20.45 22 20 21.55 20 21V15C20 14.45 20.45 14 21 14C21.55 14 22 14.45 22 15Z"/>
</svg>
